# xmcd CD database file
#
# Track frame offsets:
#	150
#	12828
#	26443
#	39332
#	52160
#	66696
#	79751
#	94775
#	109005
#	122105
#	136039
#	150880
#	165545
#	178865
#	191112
#	203861
#	218891
#	229386
#	244554
#	258838
#	272408
#	285302
#	299732
#
# Disc length: 4159 seconds
#
# Revision: 1
# Processed by: cddbd v1.5.2PL0 Copyright (c) Steve Scherf et al.
# Submitted via: CDex 1.51
#
DISCID=48103d17
DTITLE=The Inkspots - The Classic Years  { 1936-1949 }  [CD 2-2]
DYEAR=2009
DGENRE=Jazz
TTITLE0=Your Feet's Too Big  [1936]
TTITLE1=I Cover The Waterfront  [1946]
TTITLE2=Stompin' At The Savoy  [1936]
TTITLE3=Bless You  [1939]
TTITLE4=Into Each Life Some Rain Must Fall  (with Elle Fitzgerald)  [1944]
TTITLE5=That Cat Is High  [1938]
TTITLE6=You're Breaking My Heart  [1949]
TTITLE7=Oh ! Red  [1938]
TTITLE8=I'll Get By  [1943]
TTITLE9=Christopher Columbus  [1936]
TTITLE10=A Lovely Way To Spen An Evening  [1943]
TTITLE11=Every Night About This Time  [1942]
TTITLE12=When The Swallows Come Back To Capistrano  [1940]
TTITLE13=Do I Worry  [1940]
TTITLE14=Just For A Thrill  [1939]
TTITLE15=Someone's Rocking My Dreamboat  [1941]
TTITLE16=Stop Pretending  [1940]
TTITLE17=We Three My Echo, My Shadow And Me  [1940]
TTITLE18=Coquette  [1939]
TTITLE19=Street Of Dreams  [1942]
TTITLE20=Keep Away From My Doorstep  [1936]
TTITLE21=To Each His Own  [1946]
TTITLE22=I'm Beginning To See The light  (with Elle Fitzgerald)  [1945]
EXTD=YEAR: 2009
EXTT0=
EXTT1=
EXTT2=
EXTT3=
EXTT4=
EXTT5=
EXTT6=
EXTT7=
EXTT8=
EXTT9=
EXTT10=
EXTT11=
EXTT12=
EXTT13=
EXTT14=
EXTT15=
EXTT16=
EXTT17=
EXTT18=
EXTT19=
EXTT20=
EXTT21=
EXTT22=
PLAYORDER=
